# xmcd
#
# Track frame offsets:
#	150
#	12762
#	29037
#	44872
#	57562
#	67822
#	84950
#	98475
#	115110
#	124900
#
# Disc length: 1844 seconds
#
# Revision: 1
# Processed by: cddbd v1.5.2PL0 Copyright (c) Steve Scherf et al.
# Submitted via: audiograbber 1.83.01
#
DISCID=8107320a
DTITLE=Various Artist - Country Stars of Branson, Missouri
DYEAR=1995
DGENRE=
TTITLE0=Rainbow Stew
TTITLE1=Can I Sleep In Your Arms
TTITLE2=I Don`t Need Your Rockin Chair
TTITLE3=Would Jesus Wear A Rolex
TTITLE4=Big Freight Train Carry Me Home
TTITLE5=Top Gum
TTITLE6=Coal Miner`s Daughter
TTITLE7=Elvira
TTITLE8=Banjo Buck
TTITLE9=Ruby,Don`t Take Your Love To Town
EXTD=
EXTT0=Merle Haggard  ( 2:46 )
EXTT1=Jeannie Seely  ( 3:35 )
EXTT2=George Jones  ( 3:29 )
EXTT3=Ray Stevens  ( 2:46 )
EXTT4=Boxcar Willie  ( 2:15 )
EXTT5=Jerry Clower  ( 3:46 )
EXTT6=Lorettea Lynn  ( 2:58 )
EXTT7=Oak Ridge Boys  ( 3:39 )
EXTT8=Buck Trent  ( 2:07 )
EXTT9=Kenny Rogers&The First Edition  ( 2:57 )
PLAYORDER=
